<svg width="200" height="173" viewBox="0 0 200 173" fill="none" xmlns="http://www.w3.org/2000/svg">
<rect width="200" height="173" rx="10" fill="black"/>
<path d="M47.25 91.1364V71.0909H56.9318V106H47.6364V99.6591H47.2727C46.4848 101.705 45.1742 103.348 43.3409 104.591C41.5227 105.833 39.303 106.455 36.6818 106.455C34.3485 106.455 32.2955 105.924 30.5227 104.864C28.75 103.803 27.3636 102.295 26.3636 100.341C25.3788 98.3864 24.8788 96.0455 24.8636 93.3182V71.0909H34.5455V91.5909C34.5606 93.6515 35.1136 95.2803 36.2045 96.4773C37.2955 97.6742 38.7576 98.2727 40.5909 98.2727C41.7576 98.2727 42.8485 98.0076 43.8636 97.4773C44.8788 96.9318 45.697 96.1288 46.3182 95.0682C46.9545 94.0076 47.2652 92.697 47.25 91.1364ZM80.4034 119.818C77.267 119.818 74.5777 119.386 72.3352 118.523C70.108 117.674 68.3352 116.515 67.017 115.045C65.6989 113.576 64.8428 111.924 64.4489 110.091L73.4034 108.886C73.6761 109.583 74.108 110.235 74.6989 110.841C75.2898 111.447 76.0701 111.932 77.0398 112.295C78.0246 112.674 79.2216 112.864 80.6307 112.864C82.7367 112.864 84.4716 112.348 85.8352 111.318C87.214 110.303 87.9034 108.598 87.9034 106.205V99.8182H87.4943C87.0701 100.788 86.4337 101.705 85.5852 102.568C84.7367 103.432 83.6458 104.136 82.3125 104.682C80.9792 105.227 79.3883 105.5 77.5398 105.5C74.9186 105.5 72.5322 104.894 70.3807 103.682C68.2443 102.455 66.5398 100.583 65.267 98.0682C64.0095 95.5379 63.3807 92.3409 63.3807 88.4773C63.3807 84.5227 64.0246 81.2197 65.3125 78.5682C66.6004 75.9167 68.3125 73.9318 70.4489 72.6136C72.6004 71.2955 74.9564 70.6364 77.517 70.6364C79.4716 70.6364 81.108 70.9697 82.4261 71.6364C83.7443 72.2879 84.8049 73.1061 85.608 74.0909C86.4261 75.0606 87.0549 76.0152 87.4943 76.9545H87.858V71.0909H97.4716V106.341C97.4716 109.311 96.7443 111.795 95.2898 113.795C93.8352 115.795 91.8201 117.295 89.2443 118.295C86.6837 119.311 83.7367 119.818 80.4034 119.818ZM80.608 98.2273C82.1686 98.2273 83.4867 97.8409 84.5625 97.0682C85.6534 96.2803 86.4867 95.1591 87.0625 93.7045C87.6534 92.2348 87.9489 90.4773 87.9489 88.4318C87.9489 86.3864 87.661 84.6136 87.0852 83.1136C86.5095 81.5985 85.6761 80.4242 84.5852 79.5909C83.4943 78.7576 82.1686 78.3409 80.608 78.3409C79.017 78.3409 77.6761 78.7727 76.5852 79.6364C75.4943 80.4848 74.6686 81.6667 74.108 83.1818C73.5473 84.697 73.267 86.447 73.267 88.4318C73.267 90.447 73.5473 92.1894 74.108 93.6591C74.6837 95.1136 75.5095 96.2424 76.5852 97.0455C77.6761 97.8333 79.017 98.2273 80.608 98.2273Z" fill="#1400FF"/>
<path d="M127.562 91.1364V71.0909H137.244V106H127.949V99.6591H127.585C126.797 101.705 125.487 103.348 123.653 104.591C121.835 105.833 119.616 106.455 116.994 106.455C114.661 106.455 112.608 105.924 110.835 104.864C109.063 103.803 107.676 102.295 106.676 100.341C105.691 98.3864 105.191 96.0455 105.176 93.3182V71.0909H114.858V91.5909C114.873 93.6515 115.426 95.2803 116.517 96.4773C117.608 97.6742 119.07 98.2727 120.903 98.2727C122.07 98.2727 123.161 98.0076 124.176 97.4773C125.191 96.9318 126.009 96.1288 126.631 95.0682C127.267 94.0076 127.578 92.697 127.562 91.1364ZM144.989 106V71.0909H154.375V77.1818H154.739C155.375 75.0152 156.443 73.3788 157.943 72.2727C159.443 71.1515 161.17 70.5909 163.125 70.5909C163.61 70.5909 164.133 70.6212 164.693 70.6818C165.254 70.7424 165.746 70.8258 166.17 70.9318V79.5227C165.716 79.3864 165.087 79.2652 164.284 79.1591C163.481 79.053 162.746 79 162.08 79C160.655 79 159.383 79.3106 158.261 79.9318C157.155 80.5379 156.277 81.3864 155.625 82.4773C154.989 83.5682 154.67 84.8258 154.67 86.25V106H144.989Z" fill="#F5F5F5"/>
</svg>
