<svg width="40" height="40" viewBox="0 0 40 40" fill="none" xmlns="http://www.w3.org/2000/svg">
<circle cx="20" cy="20" r="20" fill="black"/>
<path d="M17.6616 15.5455H19.6605V21.6854C19.6605 22.3748 19.4959 22.978 19.1665 23.495C18.8403 24.0121 18.3833 24.4152 17.7955 24.7045C17.2076 24.9908 16.5228 25.1339 15.7411 25.1339C14.9563 25.1339 14.27 24.9908 13.6822 24.7045C13.0943 24.4152 12.6373 24.0121 12.3111 23.495C11.9848 22.978 11.8217 22.3748 11.8217 21.6854V15.5455H13.8207V21.5146C13.8207 21.8746 13.8991 22.1947 14.0561 22.4748C14.2161 22.7549 14.4408 22.9749 14.7301 23.1349C15.0194 23.295 15.3564 23.375 15.7411 23.375C16.1289 23.375 16.4659 23.295 16.7521 23.1349C17.0414 22.9749 17.2646 22.7549 17.4215 22.4748C17.5816 22.1947 17.6616 21.8746 17.6616 21.5146V15.5455ZM22.9347 25H20.7927L24.0566 15.5455H26.6325L29.8918 25H27.7497L25.3815 17.706H25.3076L22.9347 25ZM22.8009 21.2837H27.8605V22.8441H22.8009V21.2837Z" fill="white"/>
</svg>
