<svg width="94" height="50" viewBox="0 0 94 50" fill="none" xmlns="http://www.w3.org/2000/svg">
<rect width="94" height="50" rx="10" fill="black"/>
<path d="M23.125 25.5682V15.5455H27.9659V33H23.3182V29.8295H23.1364C22.7424 30.8523 22.0871 31.6742 21.1705 32.2955C20.2614 32.9167 19.1515 33.2273 17.8409 33.2273C16.6742 33.2273 15.6477 32.9621 14.7614 32.4318C13.875 31.9015 13.1818 31.1477 12.6818 30.1705C12.1894 29.1932 11.9394 28.0227 11.9318 26.6591V15.5455H16.7727V25.7955C16.7803 26.8258 17.0568 27.6402 17.6023 28.2386C18.1477 28.8371 18.8788 29.1364 19.7955 29.1364C20.3788 29.1364 20.9242 29.0038 21.4318 28.7386C21.9394 28.4659 22.3485 28.0644 22.6591 27.5341C22.9773 27.0038 23.1326 26.3485 23.125 25.5682ZM39.7017 39.9091C38.1335 39.9091 36.7888 39.6932 35.6676 39.2614C34.554 38.8371 33.6676 38.2576 33.0085 37.5227C32.3494 36.7879 31.9214 35.9621 31.7244 35.0455L36.2017 34.4432C36.3381 34.7917 36.554 35.1174 36.8494 35.4205C37.1449 35.7235 37.535 35.9659 38.0199 36.1477C38.5123 36.3371 39.1108 36.4318 39.8153 36.4318C40.8684 36.4318 41.7358 36.1742 42.4176 35.6591C43.107 35.1515 43.4517 34.2992 43.4517 33.1023V29.9091H43.2472C43.035 30.3939 42.7169 30.8523 42.2926 31.2841C41.8684 31.7159 41.3229 32.0682 40.6562 32.3409C39.9896 32.6136 39.1941 32.75 38.2699 32.75C36.9593 32.75 35.7661 32.447 34.6903 31.8409C33.6222 31.2273 32.7699 30.2917 32.1335 29.0341C31.5047 27.7689 31.1903 26.1705 31.1903 24.2386C31.1903 22.2614 31.5123 20.6098 32.1562 19.2841C32.8002 17.9583 33.6563 16.9659 34.7244 16.3068C35.8002 15.6477 36.9782 15.3182 38.2585 15.3182C39.2358 15.3182 40.054 15.4848 40.7131 15.8182C41.3722 16.1439 41.9025 16.553 42.304 17.0455C42.7131 17.5303 43.0275 18.0076 43.2472 18.4773H43.429V15.5455H48.2358V33.1705C48.2358 34.6553 47.8722 35.8977 47.1449 36.8977C46.4176 37.8977 45.41 38.6477 44.1222 39.1477C42.8419 39.6553 41.3684 39.9091 39.7017 39.9091ZM39.804 29.1136C40.5843 29.1136 41.2434 28.9205 41.7812 28.5341C42.3267 28.1402 42.7434 27.5795 43.0312 26.8523C43.3267 26.1174 43.4744 25.2386 43.4744 24.2159C43.4744 23.1932 43.3305 22.3068 43.0426 21.5568C42.7547 20.7992 42.3381 20.2121 41.7926 19.7955C41.2472 19.3788 40.5843 19.1705 39.804 19.1705C39.0085 19.1705 38.3381 19.3864 37.7926 19.8182C37.2472 20.2424 36.8343 20.8333 36.554 21.5909C36.2737 22.3485 36.1335 23.2235 36.1335 24.2159C36.1335 25.2235 36.2737 26.0947 36.554 26.8295C36.8419 27.5568 37.2547 28.1212 37.7926 28.5227C38.3381 28.9167 39.0085 29.1136 39.804 29.1136ZM63.2812 25.5682V15.5455H68.1222V33H63.4744V29.8295H63.2926C62.8987 30.8523 62.2434 31.6742 61.3267 32.2955C60.4176 32.9167 59.3078 33.2273 57.9972 33.2273C56.8305 33.2273 55.804 32.9621 54.9176 32.4318C54.0313 31.9015 53.3381 31.1477 52.8381 30.1705C52.3456 29.1932 52.0956 28.0227 52.0881 26.6591V15.5455H56.929V25.7955C56.9366 26.8258 57.2131 27.6402 57.7585 28.2386C58.304 28.8371 59.035 29.1364 59.9517 29.1364C60.535 29.1364 61.0805 29.0038 61.5881 28.7386C62.0956 28.4659 62.5047 28.0644 62.8153 27.5341C63.1335 27.0038 63.2888 26.3485 63.2812 25.5682ZM71.9943 33V15.5455H76.6875V18.5909H76.8693C77.1875 17.5076 77.7216 16.6894 78.4716 16.1364C79.2216 15.5758 80.0852 15.2955 81.0625 15.2955C81.3049 15.2955 81.5663 15.3106 81.8466 15.3409C82.1269 15.3712 82.3731 15.4129 82.5852 15.4659V19.7614C82.358 19.6932 82.0436 19.6326 81.642 19.5795C81.2405 19.5265 80.8731 19.5 80.5398 19.5C79.8277 19.5 79.1913 19.6553 78.6307 19.9659C78.0777 20.2689 77.6383 20.6932 77.3125 21.2386C76.9943 21.7841 76.8352 22.4129 76.8352 23.125V33H71.9943Z" fill="#F5F5F5"/>
</svg>
