<svg width="241" height="50" viewBox="0 0 241 50" fill="none" xmlns="http://www.w3.org/2000/svg">
<rect width="241" height="50" rx="10" fill="black"/>
<path d="M26.125 27.5682V17.5455H30.9659V35H26.3182V31.8295H26.1364C25.7424 32.8523 25.0871 33.6742 24.1705 34.2955C23.2614 34.9167 22.1515 35.2273 20.8409 35.2273C19.6742 35.2273 18.6477 34.9621 17.7614 34.4318C16.875 33.9015 16.1818 33.1477 15.6818 32.1705C15.1894 31.1932 14.9394 30.0227 14.9318 28.6591V17.5455H19.7727V27.7955C19.7803 28.8258 20.0568 29.6402 20.6023 30.2386C21.1477 30.8371 21.8788 31.1364 22.7955 31.1364C23.3788 31.1364 23.9242 31.0038 24.4318 30.7386C24.9394 30.4659 25.3485 30.0644 25.6591 29.5341C25.9773 29.0038 26.1326 28.3485 26.125 27.5682ZM42.7017 41.9091C41.1335 41.9091 39.7888 41.6932 38.6676 41.2614C37.554 40.8371 36.6676 40.2576 36.0085 39.5227C35.3494 38.7879 34.9214 37.9621 34.7244 37.0455L39.2017 36.4432C39.3381 36.7917 39.554 37.1174 39.8494 37.4205C40.1449 37.7235 40.535 37.9659 41.0199 38.1477C41.5123 38.3371 42.1108 38.4318 42.8153 38.4318C43.8684 38.4318 44.7358 38.1742 45.4176 37.6591C46.107 37.1515 46.4517 36.2992 46.4517 35.1023V31.9091H46.2472C46.035 32.3939 45.7169 32.8523 45.2926 33.2841C44.8684 33.7159 44.3229 34.0682 43.6562 34.3409C42.9896 34.6136 42.1941 34.75 41.2699 34.75C39.9593 34.75 38.7661 34.447 37.6903 33.8409C36.6222 33.2273 35.7699 32.2917 35.1335 31.0341C34.5047 29.7689 34.1903 28.1705 34.1903 26.2386C34.1903 24.2614 34.5123 22.6098 35.1562 21.2841C35.8002 19.9583 36.6563 18.9659 37.7244 18.3068C38.8002 17.6477 39.9782 17.3182 41.2585 17.3182C42.2358 17.3182 43.054 17.4848 43.7131 17.8182C44.3722 18.1439 44.9025 18.553 45.304 19.0455C45.7131 19.5303 46.0275 20.0076 46.2472 20.4773H46.429V17.5455H51.2358V35.1705C51.2358 36.6553 50.8722 37.8977 50.1449 38.8977C49.4176 39.8977 48.41 40.6477 47.1222 41.1477C45.8419 41.6553 44.3684 41.9091 42.7017 41.9091ZM42.804 31.1136C43.5843 31.1136 44.2434 30.9205 44.7812 30.5341C45.3267 30.1402 45.7434 29.5795 46.0312 28.8523C46.3267 28.1174 46.4744 27.2386 46.4744 26.2159C46.4744 25.1932 46.3305 24.3068 46.0426 23.5568C45.7547 22.7992 45.3381 22.2121 44.7926 21.7955C44.2472 21.3788 43.5843 21.1705 42.804 21.1705C42.0085 21.1705 41.3381 21.3864 40.7926 21.8182C40.2472 22.2424 39.8343 22.8333 39.554 23.5909C39.2737 24.3485 39.1335 25.2235 39.1335 26.2159C39.1335 27.2235 39.2737 28.0947 39.554 28.8295C39.8419 29.5568 40.2547 30.1212 40.7926 30.5227C41.3381 30.9167 42.0085 31.1136 42.804 31.1136ZM66.2812 27.5682V17.5455H71.1222V35H66.4744V31.8295H66.2926C65.8987 32.8523 65.2434 33.6742 64.3267 34.2955C63.4176 34.9167 62.3078 35.2273 60.9972 35.2273C59.8305 35.2273 58.804 34.9621 57.9176 34.4318C57.0313 33.9015 56.3381 33.1477 55.8381 32.1705C55.3456 31.1932 55.0956 30.0227 55.0881 28.6591V17.5455H59.929V27.7955C59.9366 28.8258 60.2131 29.6402 60.7585 30.2386C61.304 30.8371 62.035 31.1364 62.9517 31.1364C63.535 31.1364 64.0805 31.0038 64.5881 30.7386C65.0956 30.4659 65.5047 30.0644 65.8153 29.5341C66.1335 29.0038 66.2888 28.3485 66.2812 27.5682ZM74.9943 35V17.5455H79.6875V20.5909H79.8693C80.1875 19.5076 80.7216 18.6894 81.4716 18.1364C82.2216 17.5758 83.0852 17.2955 84.0625 17.2955C84.3049 17.2955 84.5663 17.3106 84.8466 17.3409C85.1269 17.3712 85.3731 17.4129 85.5852 17.4659V21.7614C85.358 21.6932 85.0436 21.6326 84.642 21.5795C84.2405 21.5265 83.8731 21.5 83.5398 21.5C82.8277 21.5 82.1913 21.6553 81.6307 21.9659C81.0777 22.2689 80.6383 22.6932 80.3125 23.2386C79.9943 23.7841 79.8352 24.4129 79.8352 25.125V35H74.9943ZM110.017 22.5227L105.585 22.7955C105.509 22.4167 105.347 22.0758 105.097 21.7727C104.847 21.4621 104.517 21.2159 104.108 21.0341C103.706 20.8447 103.225 20.75 102.665 20.75C101.915 20.75 101.282 20.9091 100.767 21.2273C100.252 21.5379 99.9943 21.9545 99.9943 22.4773C99.9943 22.8939 100.161 23.2462 100.494 23.5341C100.828 23.822 101.4 24.053 102.21 24.2273L105.369 24.8636C107.066 25.2121 108.331 25.7727 109.165 26.5455C109.998 27.3182 110.415 28.3333 110.415 29.5909C110.415 30.7348 110.078 31.7386 109.403 32.6023C108.737 33.4659 107.82 34.1402 106.653 34.625C105.494 35.1023 104.157 35.3409 102.642 35.3409C100.331 35.3409 98.4905 34.8598 97.1193 33.8977C95.7557 32.928 94.9564 31.6098 94.7216 29.9432L99.483 29.6932C99.6269 30.3977 99.9754 30.9356 100.528 31.3068C101.081 31.6705 101.79 31.8523 102.653 31.8523C103.502 31.8523 104.184 31.6894 104.699 31.3636C105.222 31.0303 105.487 30.6023 105.494 30.0795C105.487 29.6402 105.301 29.2803 104.938 29C104.574 28.7121 104.013 28.4924 103.256 28.3409L100.233 27.7386C98.5284 27.3977 97.2595 26.8068 96.4261 25.9659C95.6004 25.125 95.1875 24.053 95.1875 22.75C95.1875 21.6288 95.4905 20.6629 96.0966 19.8523C96.7102 19.0417 97.5701 18.4167 98.6761 17.9773C99.7898 17.5379 101.093 17.3182 102.585 17.3182C104.79 17.3182 106.525 17.7841 107.79 18.7159C109.063 19.6477 109.805 20.9167 110.017 22.5227ZM121.349 35.3409C119.584 35.3409 118.058 34.9659 116.77 34.2159C115.49 33.4583 114.501 32.4053 113.804 31.0568C113.107 29.7008 112.759 28.1288 112.759 26.3409C112.759 24.5379 113.107 22.9621 113.804 21.6136C114.501 20.2576 115.49 19.2045 116.77 18.4545C118.058 17.697 119.584 17.3182 121.349 17.3182C123.115 17.3182 124.637 17.697 125.918 18.4545C127.205 19.2045 128.198 20.2576 128.895 21.6136C129.592 22.9621 129.94 24.5379 129.94 26.3409C129.94 28.1288 129.592 29.7008 128.895 31.0568C128.198 32.4053 127.205 33.4583 125.918 34.2159C124.637 34.9659 123.115 35.3409 121.349 35.3409ZM121.372 31.5909C122.175 31.5909 122.846 31.3636 123.384 30.9091C123.921 30.447 124.327 29.8182 124.599 29.0227C124.88 28.2273 125.02 27.322 125.02 26.3068C125.02 25.2917 124.88 24.3864 124.599 23.5909C124.327 22.7955 123.921 22.1667 123.384 21.7045C122.846 21.2424 122.175 21.0114 121.372 21.0114C120.562 21.0114 119.88 21.2424 119.327 21.7045C118.781 22.1667 118.368 22.7955 118.088 23.5909C117.815 24.3864 117.679 25.2917 117.679 26.3068C117.679 27.322 117.815 28.2273 118.088 29.0227C118.368 29.8182 118.781 30.447 119.327 30.9091C119.88 31.3636 120.562 31.5909 121.372 31.5909ZM142.474 17.5455V21.1818H131.702V17.5455H142.474ZM134.168 35V16.2841C134.168 15.0189 134.414 13.9697 134.906 13.1364C135.406 12.303 136.088 11.678 136.952 11.2614C137.815 10.8447 138.796 10.6364 139.895 10.6364C140.637 10.6364 141.315 10.6932 141.929 10.8068C142.55 10.9205 143.012 11.0227 143.315 11.1136L142.452 14.75C142.262 14.6894 142.027 14.6326 141.747 14.5795C141.474 14.5265 141.194 14.5 140.906 14.5C140.194 14.5 139.698 14.6667 139.418 15C139.137 15.3258 138.997 15.7841 138.997 16.375V35H134.168ZM154.716 17.5455V21.1818H144.205V17.5455H154.716ZM146.591 13.3636H151.432V29.6364C151.432 30.0833 151.5 30.4318 151.636 30.6818C151.773 30.9242 151.962 31.0947 152.205 31.1932C152.455 31.2917 152.742 31.3409 153.068 31.3409C153.295 31.3409 153.523 31.322 153.75 31.2841C153.977 31.2386 154.152 31.2045 154.273 31.1818L155.034 34.7841C154.792 34.8598 154.451 34.947 154.011 35.0455C153.572 35.1515 153.038 35.2159 152.409 35.2386C151.242 35.2841 150.22 35.1288 149.341 34.7727C148.47 34.4167 147.792 33.8636 147.307 33.1136C146.822 32.3636 146.583 31.4167 146.591 30.2727V13.3636ZM161.312 35L156.562 17.5455H161.46L164.165 29.2727H164.324L167.142 17.5455H171.949L174.812 29.2045H174.96L177.619 17.5455H182.506L177.767 35H172.642L169.642 24.0227H169.426L166.426 35H161.312ZM190.065 35.3295C188.952 35.3295 187.959 35.1364 187.088 34.75C186.217 34.3561 185.527 33.7765 185.02 33.0114C184.52 32.2386 184.27 31.2765 184.27 30.125C184.27 29.1553 184.448 28.3409 184.804 27.6818C185.16 27.0227 185.645 26.4924 186.259 26.0909C186.872 25.6894 187.569 25.3864 188.349 25.1818C189.137 24.9773 189.963 24.8333 190.827 24.75C191.842 24.6439 192.66 24.5455 193.281 24.4545C193.902 24.3561 194.353 24.2121 194.634 24.0227C194.914 23.8333 195.054 23.553 195.054 23.1818V23.1136C195.054 22.3939 194.827 21.8371 194.372 21.4432C193.925 21.0492 193.289 20.8523 192.463 20.8523C191.592 20.8523 190.899 21.0455 190.384 21.4318C189.868 21.8106 189.527 22.2879 189.361 22.8636L184.884 22.5C185.111 21.4394 185.558 20.5227 186.224 19.75C186.891 18.9697 187.751 18.3712 188.804 17.9545C189.865 17.5303 191.092 17.3182 192.486 17.3182C193.455 17.3182 194.384 17.4318 195.27 17.6591C196.164 17.8864 196.955 18.2386 197.645 18.7159C198.342 19.1932 198.891 19.8068 199.293 20.5568C199.694 21.2992 199.895 22.1894 199.895 23.2273V35H195.304V32.5795H195.168C194.887 33.125 194.512 33.6061 194.043 34.0227C193.573 34.4318 193.009 34.7538 192.349 34.9886C191.69 35.2159 190.929 35.3295 190.065 35.3295ZM191.452 31.9886C192.164 31.9886 192.793 31.8485 193.338 31.5682C193.884 31.2803 194.312 30.8939 194.622 30.4091C194.933 29.9242 195.088 29.375 195.088 28.7614V26.9091C194.937 27.0076 194.728 27.0985 194.463 27.1818C194.205 27.2576 193.914 27.3295 193.588 27.3977C193.262 27.4583 192.937 27.5152 192.611 27.5682C192.285 27.6136 191.99 27.6553 191.724 27.6932C191.156 27.7765 190.66 27.9091 190.236 28.0909C189.812 28.2727 189.482 28.5189 189.247 28.8295C189.012 29.1326 188.895 29.5114 188.895 29.9659C188.895 30.625 189.134 31.1288 189.611 31.4773C190.096 31.8182 190.709 31.9886 191.452 31.9886ZM203.651 35V17.5455H208.344V20.5909H208.526C208.844 19.5076 209.378 18.6894 210.128 18.1364C210.878 17.5758 211.741 17.2955 212.719 17.2955C212.961 17.2955 213.223 17.3106 213.503 17.3409C213.783 17.3712 214.029 17.4129 214.241 17.4659V21.7614C214.014 21.6932 213.7 21.6326 213.298 21.5795C212.897 21.5265 212.529 21.5 212.196 21.5C211.484 21.5 210.848 21.6553 210.287 21.9659C209.734 22.2689 209.295 22.6932 208.969 23.2386C208.651 23.7841 208.491 24.4129 208.491 25.125V35H203.651ZM223.886 35.3409C222.091 35.3409 220.545 34.9773 219.25 34.25C217.962 33.5152 216.97 32.4773 216.273 31.1364C215.576 29.7879 215.227 28.1932 215.227 26.3523C215.227 24.5568 215.576 22.9811 216.273 21.625C216.97 20.2689 217.951 19.2121 219.216 18.4545C220.489 17.697 221.981 17.3182 223.693 17.3182C224.845 17.3182 225.917 17.5038 226.909 17.875C227.909 18.2386 228.78 18.7879 229.523 19.5227C230.273 20.2576 230.856 21.1818 231.273 22.2955C231.689 23.4015 231.898 24.697 231.898 26.1818V27.5114H217.159V24.5114H227.341C227.341 23.8144 227.189 23.197 226.886 22.6591C226.583 22.1212 226.163 21.7008 225.625 21.3977C225.095 21.0871 224.477 20.9318 223.773 20.9318C223.038 20.9318 222.386 21.1023 221.818 21.4432C221.258 21.7765 220.818 22.2273 220.5 22.7955C220.182 23.3561 220.019 23.9811 220.011 24.6705V27.5227C220.011 28.3864 220.17 29.1326 220.489 29.7614C220.814 30.3902 221.273 30.875 221.864 31.2159C222.455 31.5568 223.155 31.7273 223.966 31.7273C224.504 31.7273 224.996 31.6515 225.443 31.5C225.89 31.3485 226.273 31.1212 226.591 30.8182C226.909 30.5152 227.152 30.1439 227.318 29.7045L231.795 30C231.568 31.0758 231.102 32.0152 230.398 32.8182C229.701 33.6136 228.799 34.2348 227.693 34.6818C226.595 35.1212 225.326 35.3409 223.886 35.3409Z" fill="#F5F5F5"/>
</svg>
