<svg width="56" height="57" viewBox="0 0 56 57" fill="none" xmlns="http://www.w3.org/2000/svg">
<path d="M54.449 23.55H28.551V33.725H43.7041C43.4286 36.2 41.7755 40.05 38.1939 42.525C35.9898 44.175 32.6837 45.275 28.551 45.275C21.3878 45.275 15.051 40.6 12.8469 33.725C12.2959 32.075 12.0204 30.15 12.0204 28.225C12.0204 26.3 12.2959 24.375 12.8469 22.725C13.1225 22.175 13.1224 21.625 13.398 21.35C15.8776 15.575 21.6633 11.45 28.551 11.45C33.7857 11.45 37.0918 13.65 39.2959 15.575L47.0102 7.875C42.3265 3.75 35.9898 1 28.551 1C17.8061 1 8.43878 7.05 4.03061 16.125C2.10204 19.975 1 24.1 1 28.5C1 32.9 2.10204 37.025 4.03061 40.875C8.43878 49.95 17.8061 56 28.551 56C35.9898 56 42.3265 53.525 46.7347 49.4C51.9694 44.725 55 37.575 55 29.05C55 26.85 54.7245 25.2 54.449 23.55Z" stroke="black" stroke-width="1.5" stroke-miterlimit="10" stroke-linecap="round" stroke-linejoin="round"/>
</svg>
