<svg width="18" height="22" viewBox="0 0 18 22" fill="none" xmlns="http://www.w3.org/2000/svg">
<path d="M12.215 1C12.415 2.1 11.915 3.2 11.315 4C10.715 4.8 9.61498 5.5 8.51498 5.4C8.31498 4.3 8.81499 3.3 9.41499 2.5C10.115 1.7 11.215 1.1 12.215 1ZM15.415 18.4C15.915 17.6 16.215 17.1 16.615 16.2C13.515 15 13.015 10.6 16.115 9C15.215 7.8 13.915 7.2 12.615 7.2C11.715 7.2 11.115 7.4 10.515 7.6C10.015 7.8 9.61499 7.9 9.11499 7.9C8.51499 7.9 8.11498 7.7 7.51498 7.5C6.91498 7.3 6.31498 7.1 5.61498 7.1C4.21499 7.1 2.71498 7.9 1.81498 9.4C0.514985 11.4 0.714985 15.3 2.81499 18.5C3.71499 19.7 4.71498 21 6.01498 21C6.61498 21 6.91498 20.8 7.31498 20.7C7.81498 20.5 8.31499 20.3 9.11499 20.3C10.015 20.3 10.415 20.5 10.915 20.7C11.315 20.9 11.615 21 12.215 21C13.615 21 14.615 19.5 15.415 18.4Z" stroke="black" stroke-width="1.5" stroke-miterlimit="10" stroke-linecap="round" stroke-linejoin="round"/>
</svg>
